<svg width="17" height="17" viewBox="0 0 17 17" fill="none" xmlns="http://www.w3.org/2000/svg">
<path d="M0.796875 6.9375C0.796875 10.4453 3.64844 13.2969 7.15625 13.2969C8.46094 13.2969 9.65625 12.8984 10.6562 12.2188L14.25 15.8125C14.4688 16.0391 14.7734 16.1406 15.0781 16.1406C15.7422 16.1406 16.2188 15.6406 16.2188 14.9922C16.2188 14.6797 16.1094 14.3906 15.8984 14.1719L12.3281 10.5938C13.0703 9.57031 13.5156 8.30469 13.5156 6.9375C13.5156 3.42969 10.6641 0.578125 7.15625 0.578125C3.64844 0.578125 0.796875 3.42969 0.796875 6.9375ZM2.45312 6.9375C2.45312 4.34375 4.55469 2.23438 7.15625 2.23438C9.75 2.23438 11.8594 4.34375 11.8594 6.9375C11.8594 9.53125 9.75 11.6406 7.15625 11.6406C4.55469 11.6406 2.45312 9.53125 2.45312 6.9375Z" fill="#C4C4C4"/>
</svg>
